Motion_pl03
version=1
nRows=16
nColumns=43
inDegrees=yes
endheader
time	pelvis_tilt	pelvis_list	pelvis_rotation	pelvis_tx	pelvis_ty	pelvis_tz	hip_flexion_r	hip_adduction_r	hip_rotation_r	knee_angle_r	ankle_angle_r	subtalar_angle_r	mtp_angle_r	hip_flexion_l	hip_adduction_l	hip_rotation_l	knee_angle_l	ankle_angle_l	subtalar_angle_l	mtp_angle_l	lumbar_extension	lumbar_bending	lumbar_rotation	neck_flexion	neck_lateral_bending	neck_rotation	arm_flex_r	arm_add_r	arm_rot_r	elbow_flex_r	pro_sup_r	wrist_flex_r	wrist_dev_r	hand_finger_flex_r	arm_flex_l	arm_add_l	arm_rot_l	elbow_flex_l	pro_sup_l	wrist_flex_l	wrist_dev_l	hand_finger_flex_l
      0.64500000	     -2.98312050	     -7.37052458	     85.48441509	      0.01889191	      1.91423223	      1.43051809	     42.94274498	     -8.14581602	      6.67768394	   -106.82780353	    -11.32613179	    -16.00535900	     20.12723644	     41.95732532	     -1.38986807	     -3.97171664	   -110.15626279	    -12.36661371	    -10.22563716	     22.39859989	    -48.08757844	     -4.26739020	      3.43431617	     10.17617758	     -0.61488536	     -1.80320763	    119.38451760	    -15.09689825	     44.14988713	     53.58990914	     81.25223852	    -26.24255567	     -0.40668237	     33.94813299	    111.09909867	    -10.37102273	     27.38757612	     61.70541536	    104.14302493	    -16.74830470	     11.85076671	     66.25123487
      0.64750000	     -3.35250099	     -7.47689594	     85.12440317	      0.01904215	      1.91373126	      1.42683122	     43.75481106	     -8.11881332	      6.97996880	   -106.92920835	    -11.84337239	    -17.47848314	     18.98892200	     42.50803478	     -1.23277006	     -4.63536410	   -110.02174034	    -12.28016133	    -10.44791367	     21.94004145	    -48.04143635	     -4.70756095	      3.20764881	     10.28371180	     -0.82523865	     -1.60507915	    118.77666393	    -15.04376986	     43.74594155	     53.73881450	     81.96615521	    -26.26877844	     -0.54859023	     34.32801732	    110.46450159	    -10.84936899	     27.43980119	     62.23542704	    105.63793658	    -17.37512304	     12.02084130	     66.14324204
      0.65000000	     -3.31917715	     -7.21767031	     85.11309899	      0.01890864	      1.91365270	      1.42303355	     43.98993173	     -8.02386800	      6.89491514	   -107.01069970	    -11.83180552	    -17.46420711	     18.96081150	     42.70997055	     -1.17679395	     -4.69860475	   -109.94849337	    -12.30099440	    -10.45366033	     21.92102309	    -48.38997544	     -4.67326137	      3.21291525	     10.35951556	     -0.83278939	     -1.59679761	    118.44448819	    -15.17706396	     43.83767147	     53.72019487	     81.98803986	    -26.23837654	     -0.53343502	     34.35439279	    110.09966474	    -11.03115676	     27.50724053	     62.07208424	    105.66104823	    -17.34992189	     12.05972490	     66.15937234
      0.65250000	     -3.28777980	     -6.96591935	     85.11318992	      0.01880039	      1.91351752	      1.41914727	     44.21087973	     -7.91647000	      6.80662406	   -107.07358265	    -11.81744993	    -17.45810315	     18.92324009	     42.91548777	     -1.14725718	     -4.79177182	   -109.85365445	    -12.36160010	    -10.47806862	     21.89051504	    -48.72646176	     -4.63774277	      3.18958545	     10.45182025	     -0.86850898	     -1.57915016	    118.06860216	    -15.34088526	     43.93577233	     53.75278089	     82.02171727	    -26.20287028	     -0.53131332	     34.38652457	    109.69280433	    -11.23067576	     27.58168025	     61.94641720	    105.69850485	    -17.32219453	     12.09206909	     66.17936580
      0.65500000	     -3.25540503	     -6.72116356	     85.10969229	      0.01873326	      1.91335400	      1.41525801	     44.44245237	     -7.79769543	      6.70817518	   -107.12070267	    -11.80123577	    -17.45660421	     18.87541225	     43.12046141	     -1.13212636	     -4.88817500	   -109.71831378	    -12.47568821	    -10.53561325	     21.84378645	    -49.06404115	     -4.60585649	      3.16480082	     10.55333509	     -0.92291911	     -1.55125139	    117.66700068	    -15.52632765	     44.02655539	     53.83213333	     82.07029186	    -26.16893952	     -0.54324458	     34.42134727	    109.26108011	    -11.45453279	     27.65051131	     61.86133019	    105.75338861	    -17.29346202	     12.11736295	     66.20330363
      0.65750000	     -3.23154457	     -6.71117526	     85.06029159	      0.01857115	      1.91290665	      1.41144815	     44.94395126	     -7.61625460	      6.63612885	   -107.11826066	    -11.73365739	    -17.48064354	     17.49482395	     43.67061049	     -1.14179322	     -5.20156191	   -109.56205823	    -13.59362713	    -12.43873431	     20.76662589	    -49.17055529	     -4.57427101	      3.19104807	     10.52568019	     -1.10376973	     -1.38155748	    117.01916926	    -15.71014919	     43.66059893	     54.15048396	     83.30807418	    -26.18686751	     -0.54138011	     34.75092769	    108.57602769	    -11.67344131	     27.37854413	     62.14909958	    106.96752710	    -17.13904885	     12.23645053	     66.47303424
      0.66000000	     -3.20435586	     -6.46096867	     85.06857948	      0.01854079	      1.91264717	      1.40768465	     45.20418646	     -7.48347089	      6.53304961	   -107.16563234	    -11.71544865	    -17.46624448	     17.47397611	     43.86872915	     -1.12588072	     -5.26844784	   -109.36859181	    -13.62946137	    -12.42244796	     20.74319347	    -49.53278265	     -4.54595406	      3.14170658	     10.67470889	     -1.10495195	     -1.38413861	    116.65802647	    -15.84761023	     43.74982289	     54.09689290	     83.31982315	    -26.15929079	     -0.52092878	     34.76862058	    108.18391861	    -11.86162836	     27.42553050	     61.97174643	    106.98097057	    -17.11560212	     12.26677665	     66.48302432
      0.66250000	     -3.11384503	     -6.22302379	     85.05469332	      0.01864774	      1.91250850	      1.40375220	     45.42767844	     -7.26342104	      6.39998163	   -107.12077511	    -11.72880150	    -17.32933815	     17.30483305	     44.09279665	     -1.22604854	     -5.35729415	   -109.14532230	    -14.12640231	    -12.57213070	     20.52133054	    -49.93020582	     -4.50307719	      3.15225636	     10.92249904	     -1.17096165	     -1.29842792	    116.13477281	    -16.10902532	     43.63536193	     54.41216232	     83.45576685	    -26.14796518	     -0.61862514	     34.81403033	    107.65713247	    -12.14717587	     27.38135793	     62.12920361	    107.08600950	    -17.05452057	     12.24810905	     66.54073492
      0.66500000	     -3.07307392	     -5.97149230	     85.07752692	      0.01861491	      1.91207313	      1.40004647	     45.69321924	     -7.11757322	      6.28676877	   -107.14840330	    -11.71938328	    -17.30081105	     17.28778246	     44.29811048	     -1.22972757	     -5.41948802	   -108.92151202	    -14.17144428	    -12.62553335	     20.48700420	    -50.28775071	     -4.47408685	      3.10450604	     11.06504085	     -1.16883151	     -1.29449688	    115.74186547	    -16.25396036	     43.72799565	     54.30398552	     83.48180547	    -26.12904155	     -0.58380304	     34.82603546	    107.24176705	    -12.32854083	     27.44250280	     61.91318538	    107.11652512	    -17.02873014	     12.29157237	     66.54880668
      0.66750000	     -3.02753614	     -5.72640757	     85.09743507	      0.01871228	      1.91167157	      1.39616070	     45.95334559	     -6.96140381	      6.14962860	   -107.14684348	    -11.72765292	    -17.24231040	     17.26943756	     44.49494568	     -1.27127432	     -5.49132104	   -108.66725953	    -14.28280351	    -12.71468943	     20.43522689	    -50.64280237	     -4.43240908	      3.05567288	     11.20802147	     -1.17410693	     -1.27838860	    115.30837378	    -16.41733452	     43.80393422	     54.25526669	     83.51808846	    -26.11260556	     -0.56741186	     34.83976150	    106.79878769	    -12.52514682	     27.49747784	     61.73844526	    107.15488978	    -17.00232768	     12.33181313	     66.56064725
      0.67000000	     -2.69454182	     -5.62015514	     85.20864919	      0.01862608	      1.91117530	      1.39225584	     46.23959135	     -6.60420933	      5.77546527	   -107.02577449	    -11.58359378	    -16.66355136	     16.77097678	     44.96060049	     -1.51589130	     -5.53115599	   -108.44090303	    -15.79011984	    -15.17715035	     19.18875316	    -50.87633561	     -4.11596495	      3.19005959	     11.26212891	     -1.18643639	     -1.07144697	    114.52302890	    -16.54277904	     43.20791279	     54.47912450	     84.73035913	    -26.05953458	     -0.57586007	     34.94928369	    106.07700862	    -12.70377727	     27.14545220	     61.94131547	    108.09400463	    -16.81637337	     12.59237069	     66.70943814
      0.67250000	     -2.66525965	     -5.37397013	     85.22979889	      0.01865483	      1.91065750	      1.38851993	     46.52990992	     -6.46114304	      5.65639497	   -107.01852561	    -11.59128870	    -16.62275853	     16.76371929	     45.15134667	     -1.52818455	     -5.58265930	   -108.11329390	    -15.83493952	    -15.17598896	     19.15604408	    -51.25045572	     -4.09142720	      3.12515155	     11.41924829	     -1.19168514	     -1.07195694	    114.10589892	    -16.71318353	     43.29528960	     54.38596530	     84.74666609	    -26.03235819	     -0.54725751	     34.96296730	    105.63726388	    -12.89801526	     27.20123649	     61.73516184	    108.11087206	    -16.79103394	     12.63303233	     66.71771848
      0.67500000	     -2.53029896	     -5.12735581	     85.23983725	      0.01886824	      1.91032381	      1.38446137	     46.74784258	     -6.19915153	      5.47962348	   -106.88947010	    -11.76651959	    -16.25913516	     16.70334745	     45.35671042	     -1.70359348	     -5.62156451	   -107.74622775	    -16.50413689	    -15.44739793	     18.86032506	    -51.65761796	     -4.01262943	      3.15059383	     11.63509060	     -1.20959288	     -0.98423666	    113.42365373	    -16.99901474	     43.03655562	     54.71633351	     84.91515218	    -26.05057268	     -0.66218431	     34.98032053	    105.01925445	    -13.18778678	     27.11081756	     61.88933929	    108.21292057	    -16.74855725	     12.67148769	     66.76790184
      0.67750000	     -2.49357846	     -4.88350790	     85.26055858	      0.01894133	      1.90964167	      1.38069362	     47.04233350	     -6.03897948	      5.35625849	   -106.85930983	    -11.74813301	    -16.21070194	     16.70484142	     45.54856001	     -1.72356526	     -5.63523062	   -107.37804954	    -16.55753545	    -15.51918773	     18.81745297	    -52.01651796	     -3.98987787	      3.09396503	     11.79777293	     -1.20647598	     -0.98144254	    112.96738109	    -17.17492011	     43.13081269	     54.55854902	     84.94647661	    -26.03038039	     -0.61631560	     34.99008221	    104.55448668	    -13.37464934	     27.18245728	     61.64273495	    108.24126631	    -16.71875543	     12.72996167	     66.77672871
      0.68000000	     -2.21263961	     -4.79310664	     85.42695194	      0.01878278	      1.90885657	      1.37680085	     47.36119493	     -5.76500566	      5.00057692	   -106.70440598	    -11.50873798	    -15.47035244	     16.64933721	     46.01758072	     -1.87571354	     -5.58289265	   -107.01584084	    -17.91804697	    -17.68756493	     17.53390987	    -52.22828350	     -3.66906728	      3.15248184	     11.85783283	     -1.18295966	     -0.84358159	    112.12620204	    -17.27079276	     42.49065849	     54.65533341	     86.22456635	    -25.86335548	     -0.56035720	     35.06648324	    103.83180358	    -13.54115502	     26.87431069	     61.71854988	    108.93385358	    -16.46085934	     13.21140641	     66.97743403
      0.68250000	     -2.18963878	     -4.54833180	     85.44816690	      0.01889241	      1.90809257	      1.37304123	     47.67289789	     -5.60914005	      4.87777853	   -106.65782414	    -11.51807586	    -15.42568191	     16.65111085	     46.19612220	     -1.90027078	     -5.59740244	   -106.56849678	    -17.96310468	    -17.67990821	     17.50308802	    -52.60484289	     -3.65391745	      3.08414748	     12.02519697	     -1.19255532	     -0.84371041	    111.65477599	    -17.47516835	     42.58630300	     54.51645650	     86.23606833	    -25.83859134	     -0.52265899	     35.07667690	    103.35103817	    -13.75075606	     26.94323958	     61.48573201	    108.94487748	    -16.42985612	     13.25937140	     66.98837142
